PathFileType	4	(X/Y/Z)	54_1_23_p0_0-297.trc
DataRate	CameraRate	NumFrames	NumMarkers	Units	OrigDataRate	OrigDataStartFrame	OrigNumFrames
59.0	59.0	4	27	m	59.0	0	298
Frame#	Time	RHip			RKnee			RAnkle			RBigToe			RSmallToe			RHeel			LHip			LKnee			LAnkle			LBigToe			LSmallToe			LHeel			Neck			Head			Nose			RShoulder			RElbow			RWrist			RThumb			RIndex			RPinky			LShoulder			LElbow			LWrist			LThumb			LIndex			LPinky			
		X1	Y1	Z1	X2	Y2	Z2	X3	Y3	Z3	X4	Y4	Z4	X5	Y5	Z5	X6	Y6	Z6	X7	Y7	Z7	X8	Y8	Z8	X9	Y9	Z9	X10	Y10	Z10	X11	Y11	Z11	X12	Y12	Z12	X13	Y13	Z13	X14	Y14	Z14	X15	Y15	Z15	X16	Y16	Z16	X17	Y17	Z17	X18	Y18	Z18	X19	Y19	Z19	X20	Y20	Z20	X21	Y21	Z21	X22	Y22	Z22	X23	Y23	Z23	X24	Y24	Z24	X25	Y25	Z25	X26	Y26	Z26	X27	Y27	Z27	
0	0.0	0.260824003318084	0.4504724632046115	1.075189803544382	0.274134912220303	0.509270397935373	1.5184678127388158	0.244168670236622	0.5380077696880411	1.93965307446721	0.2151492853599403	0.3481027951944315	1.9299407570920584	0.27802453051766257	0.3750971356473394	1.948317646700307	0.23504951034746238	0.6340246669960558	2.029002770287753	0.057623027860132084	0.46277477887007384	1.0854353811016528	0.057789454338727106	0.538520768902973	1.5338258547048638	0.06733844830849633	0.535334366743069	1.9427706672260994	0.07538255707250961	0.35979898506382857	1.9297604958163468	0.020593489620438277	0.4082404614897582	1.9568533365062653	0.08861642128490371	0.564674549127603	1.9932501784515533	0.1846393687439581	0.5062241090874255	0.566222865231958	0.16759972212698554	0.48093192710467686	0.32946752231181714	0.16106131991508485	0.40831213800047766	0.4322615828632783	0.3382817023454614	0.48660297576694456	0.6405649079418401	0.3482718680063541	0.46032215940533144	0.8859404911748091	0.2857085039244737	0.36517990272140133	1.045484983411641	0.20297508407722137	0.29564167604523006	1.0494551735745057	0.1684699040024847	0.33436595108553413	1.1247016081449634	0.1678846261429743	0.34340019030011365	1.1466898362389282	0.0212089562160149	0.492691242343192	0.6470282316581693	0.01799509195379907	0.45711196401262677	0.8996165187863522	0.06915908945424316	0.36100083103716823	1.0637928355983044	0.1659502645911133	0.3491178039559708	1.0802398129097193	0.17594237264147627	0.33333261061647756	1.131159653793294	0.15469728179866363	0.34164542833073236	1.187152680304158
1	0.01694915254237288	0.2694124525836353	0.44901391492611725	1.0790619958902599	0.28093797850063035	0.5232354425647269	1.535038282443092	0.24412056559146955	0.5384482914979861	1.9399075284548308	0.21874269590859802	0.3354704295803418	1.9305876107901685	0.27786200605665523	0.3842985963456197	1.954700568180135	0.23465038451895023	0.6334004233016745	2.0285557075399963	0.060998973632723844	0.4738110478475192	1.0900325897340835	0.06239428285212687	0.5419104808634652	1.5403199103772374	0.06623433305503072	0.5447042876854525	1.9490407687441649	0.07938062306590703	0.34705058851983467	1.9210274506883902	0.03008396142680104	0.3813329424319413	1.938127089576612	0.08768956564220057	0.5627021357881935	1.9882060510904696	0.17633508465386485	0.5165366601170238	0.5714227435252038	0.16395313303003956	0.4786537207210869	0.32924599042081143	0.16108351477741184	0.4082951406776139	0.432226220395234	0.3382709335408784	0.48662554250749424	0.640575785818751	0.3482250235265737	0.46052138920381686	0.8859775724517039	0.2821974638003638	0.36258911428957363	1.0480279029564517	0.19889397036710496	0.2941050822424554	1.0485383600062086	0.16821320471398615	0.33462085924899393	1.1248291928515164	0.16695318214520816	0.34129574625817877	1.1460134080070883	0.021262230649653737	0.49255573602740355	0.6470617355695838	0.017483337550809067	0.45644862674709324	0.9032860673454481	0.0685729524636209	0.3607405987477824	1.0675056974506227	0.16566222224634838	0.3487423493945693	1.0795496667869737	0.17575674553888182	0.33318465512863327	1.1309977553218242	0.15812529782950277	0.3511264918356136	1.1912510406495331
2	0.03389830508474576	0.2657483912143086	0.4628732304876557	1.0841413809895568	0.28053007594382173	0.5246906891309402	1.531664961991494	0.24413242998885962	0.5384468703916154	1.9399424854970733	0.21987944731934952	0.33501121018577046	1.9260004395897652	0.27468545990914156	0.37396311973567625	1.9531560031425892	0.2303619497642548	0.620892530818115	2.0203102052880046	0.06106964527991487	0.4726722026056432	1.094064990979184	0.06262835500167487	0.5418672809312002	1.540249198184193	0.06618103039096075	0.5445551976774526	1.9491565044449009	0.07811817034172558	0.34759290937859894	1.9253135940003565	0.02890679846656101	0.3820130329559537	1.9420833791467553	0.08838540086256855	0.5640450109828018	1.993170441289034	0.17984626094084122	0.5028460027357552	0.5654861614654892	0.16405919795017382	0.47875541578732905	0.32933440831732635	0.16106913949911625	0.40835659659352397	0.4322830561783518	0.33829351760650755	0.4866523942696511	0.6405320798246958	0.34860862589305514	0.46054598311735223	0.8825890939662111	0.2821855988470687	0.3627394187512297	1.0480424359288645	0.1992804091749009	0.2935002948164631	1.0445121948473088	0.16769080346429618	0.3348329917651303	1.1247943217174226	0.16763549198196345	0.3424582602226855	1.1513786797032517	0.021227497542767315	0.49256230095686077	0.6470174746592064	0.017970764938743826	0.45669548550891503	0.8994996360271993	0.0690798251352035	0.36085119178901987	1.0639140134135836	0.1654355013152601	0.34854418467008436	1.079361144123928	0.1717460316767317	0.33024107710295525	1.129673763993602	0.15791365576640692	0.35086698396837845	1.191103792930908
3	0.05084745762711865	0.26578009575402767	0.4632575996729371	1.0844514699220031	0.28005177551299865	0.522267707119142	1.5299833394616453	0.24416242644134964	0.5384729725518811	1.9399248888736302	0.21991321166974626	0.3352126811920362	1.9258086453263954	0.27805534919281377	0.3747292622178151	1.9481761442327536	0.2347247189236327	0.6337266644577673	2.0287491004102205	0.06111819430928633	0.47249260814900623	1.0940092054970243	0.06267197932447224	0.5420483392667006	1.5403437871658947	0.06280589751510841	0.5323150674283598	1.9413899709007467	0.08010932960164302	0.34739858343088764	1.9257100702389547	0.028929142305514882	0.381902101075935	1.9421280024086194	0.08820197608622751	0.5636232327185806	1.9930999404417782	0.17988539252622057	0.5029136290873386	0.5654508220768731	0.16397575340228093	0.4788359300010245	0.32931776187502315	0.1611065417951053	0.40845615636374183	0.43222671774134547	0.3383005677723877	0.48660522543427	0.6405722359303626	0.34814071074416786	0.4604525328888671	0.8859825621705057	0.27807525930216764	0.3531431575820801	1.0447157167750345	0.19913066152339745	0.2957177897737048	1.0453694060847423	0.1673559363655858	0.33483401840915467	1.1246926713098822	0.1673967925444098	0.34396062613967304	1.1483931296659642	0.02127979649820296	0.49252582338628087	0.6470406575700194	0.01740267924162936	0.4564758275640605	0.9032510778673274	0.06843121155262502	0.3607921547762497	1.0676637686747488	0.15828795692994338	0.337015739132802	1.0752109475588743	0.16694001949685427	0.3422179786525813	1.138660952510799	0.15441701831835844	0.3417231592229543	1.187266387906586
